<svg width="53" height="56" viewBox="0 0 53 56" fill="none" xmlns="http://www.w3.org/2000/svg">
<circle cx="28" cy="31" r="25" fill="#3AB8EB"/>
<circle cx="25" cy="25" r="24" fill="white" stroke="#676767" stroke-width="2"/>
<path d="M28.75 29C31.0972 29 33 27.0972 33 24.75C33 22.4028 31.0972 20.5 28.75 20.5C26.4028 20.5 24.5 22.4028 24.5 24.75C24.5 27.0972 26.4028 29 28.75 29Z" stroke="#676767" stroke-width="1.5" stroke-linecap="round" stroke-linejoin="round"/>
<path d="M24.5 20.5V12H20.25C19.1228 12 18.0418 12.4478 17.2448 13.2448C16.4478 14.0418 16 15.1228 16 16.25C16 17.3772 16.4478 18.4582 17.2448 19.2552C18.0418 20.0522 19.1228 20.5 20.25 20.5H24.5Z" stroke="#676767" stroke-width="1.5" stroke-linecap="round" stroke-linejoin="round"/>
<path d="M24.5 29V20.5H20.25C19.1228 20.5 18.0418 20.9478 17.2448 21.7448C16.4478 22.5418 16 23.6228 16 24.75C16 25.8772 16.4478 26.9582 17.2448 27.7552C18.0418 28.5522 19.1228 29 20.25 29H24.5Z" stroke="#676767" stroke-width="1.5" stroke-linecap="round" stroke-linejoin="round"/>
<path d="M24.5 20.5V12H28.75C29.8772 12 30.9582 12.4478 31.7552 13.2448C32.5522 14.0418 33 15.1228 33 16.25C33 17.3772 32.5522 18.4582 31.7552 19.2552C30.9582 20.0522 29.8772 20.5 28.75 20.5H24.5Z" stroke="#676767" stroke-width="1.5" stroke-linecap="round" stroke-linejoin="round"/>
<path d="M24.5 29V33.25C24.5 34.0906 24.2507 34.9123 23.7837 35.6112C23.3168 36.3101 22.653 36.8548 21.8764 37.1765C21.0998 37.4982 20.2453 37.5823 19.4209 37.4183C18.5964 37.2543 17.8392 36.8496 17.2448 36.2552C16.6504 35.6608 16.2457 34.9036 16.0817 34.0791C15.9177 33.2547 16.0018 32.4002 16.3235 31.6236C16.6452 30.847 17.1899 30.1832 17.8888 29.7163C18.5877 29.2493 19.4094 29 20.25 29H24.5Z" stroke="#676767" stroke-width="1.5" stroke-linecap="round" stroke-linejoin="round"/>
</svg>
