<svg width="53" height="56" viewBox="0 0 53 56" fill="none" xmlns="http://www.w3.org/2000/svg">
<circle cx="28" cy="31" r="25" fill="#3AB8EB"/>
<circle cx="25" cy="25" r="24" fill="white" stroke="#676767" stroke-width="2"/>
<path d="M19.5 38C19.8944 38.0017 20.2853 37.9252 20.65 37.775C21.0147 37.6248 21.3461 37.4039 21.625 37.125C21.9039 36.8461 22.1248 36.5147 22.275 36.15C22.4252 35.7853 22.5017 35.3944 22.5 35V29" stroke="#676767" stroke-width="1.5" stroke-linecap="round" stroke-linejoin="round"/>
<path d="M30.5 38C30.1056 38.0017 29.7147 37.9252 29.35 37.775C28.9853 37.6248 28.6539 37.4039 28.375 37.125C28.0961 36.8461 27.8752 36.5147 27.725 36.15C27.5748 35.7853 27.4984 35.3944 27.5 35V29" stroke="#676767" stroke-width="1.5" stroke-linecap="round" stroke-linejoin="round"/>
<path d="M28 29H30C30.3944 28.9984 30.7853 29.0748 31.15 29.225C31.5147 29.3752 31.8461 29.5961 32.125 29.875C32.4039 30.1539 32.6248 30.4853 32.775 30.85C32.9252 31.2147 33.0017 31.6056 33 32V33C32.9983 33.3945 33.0748 33.7853 33.225 34.15C33.3752 34.5148 33.5961 34.8461 33.875 35.125C34.1539 35.4039 34.4853 35.6249 34.85 35.775C35.2147 35.9252 35.6056 36.0017 36 36" stroke="#676767" stroke-width="1.5" stroke-linecap="round" stroke-linejoin="round"/>
<path d="M22 29H20C19.6056 28.9984 19.2147 29.0748 18.85 29.225C18.4853 29.3752 18.1539 29.5961 17.875 29.875C17.5961 30.1539 17.3752 30.4853 17.225 30.85C17.0748 31.2147 16.9983 31.6056 17 32V33C17.0017 33.3945 16.9252 33.7853 16.775 34.15C16.6248 34.5148 16.4039 34.8461 16.125 35.125C15.8461 35.4039 15.5147 35.6249 15.15 35.775C14.7853 35.9252 14.3944 36.0017 14 36" stroke="#676767" stroke-width="1.5" stroke-linecap="round" stroke-linejoin="round"/>
<path d="M22.975 16C22.3875 15.0806 21.5781 14.3239 20.6212 13.7997C19.6644 13.2754 18.591 13.0004 17.5 13C17.0149 13.8397 16.7238 14.7774 16.6481 15.7442C16.5724 16.711 16.714 17.6825 17.0625 18.5875C16.379 19.5951 16.0093 20.7825 16 22V23C16 24.5913 16.6321 26.1174 17.7574 27.2426C18.8826 28.3679 20.4087 29 22 29H28C29.5913 29 31.1174 28.3679 32.2426 27.2426C33.3679 26.1174 34 24.5913 34 23V22C33.9907 20.7825 33.621 19.5951 32.9375 18.5875C33.286 17.6825 33.4276 16.711 33.3519 15.7442C33.2762 14.7774 32.9851 13.8397 32.5 13C31.409 13.0004 30.3356 13.2754 29.3787 13.7997C28.4219 14.3239 27.6125 15.0806 27.025 16H22.975Z" stroke="#676767" stroke-width="1.5" stroke-linecap="round" stroke-linejoin="round"/>
</svg>
